<?xml version="1.0" encoding="UTF-8" standalone="no"?>
<!DOCTYPE svg PUBLIC "-//W3C//DTD SVG 1.1//EN" "http://www.w3.org/Graphics/SVG/1.1/DTD/svg11.dtd">
<svg width="100%" height="100%" viewBox="0 0 400 404" version="1.1" xmlns="http://www.w3.org/2000/svg" xmlns:xlink="http://www.w3.org/1999/xlink" xml:space="preserve" xmlns:serif="http://www.serif.com/" style="fill-rule:evenodd;clip-rule:evenodd;stroke-linejoin:round;stroke-miterlimit:2;">
    <g id="Path-1" serif:id="Path 1" transform="matrix(1,0,0,1,-1.28608,-6.41107)">
        <g id="Background">
            <clipPath id="_clip1">
                <rect id="Path-11" serif:id="Path 1" x="49" y="38.928" width="309.121" height="333.751"/>
            </clipPath>
            <g clip-path="url(#_clip1)">
                <path d="M136.86,39.2C139.41,39.59 153.2,40.82 167.5,41.93C181.8,43.05 197.32,44.41 202,44.96C206.67,45.5 217.92,46.41 227,46.98C236.07,47.55 252.27,48.47 263,49.03C273.73,49.59 288.8,50.45 296.5,50.94C304.2,51.43 312.75,52.38 315.5,53.05C318.25,53.72 322.98,55.74 326,57.52C329.57,59.64 332.81,62.66 335.22,66.14C337.96,70.08 339.12,72.96 339.6,77C339.96,80.03 339.97,84.97 339.61,88C339.18,91.71 337.92,95.13 335.74,98.51C333.96,101.26 331.37,104.99 330,106.78C328.62,108.58 326.94,110.03 326.25,110.02C325.51,110.01 325.24,109.29 325.58,108.25C325.9,107.29 326.39,104.25 326.67,101.5C327.07,97.49 326.69,95.61 324.76,92C323.43,89.51 320.6,86.35 318.43,84.92C316.16,83.43 311.12,81.65 306.5,80.71C302.1,79.82 295.8,78.61 292.5,78.03C289.2,77.46 279.3,76.99 270.5,77C261.7,77.01 251.57,77.49 248,78.07C244.42,78.64 237.79,79.76 233.25,80.56C228.71,81.35 223.99,81.99 222.75,81.98C221.51,81.97 217.12,83.04 213,84.37C208.87,85.69 203.92,87.1 202,87.5C200.07,87.9 196.25,89.26 193.5,90.52C190.75,91.78 186.92,93.54 185,94.44C183.07,95.34 179.35,97.3 176.73,98.79C174.11,100.28 169.61,103.38 166.73,105.68C163.85,107.97 159.49,112.25 157.03,115.18C154.58,118.1 151.32,123.31 149.78,126.75C147.37,132.16 147,134.27 147,142.5C147,151.32 147.23,152.43 150.25,157.99C152.04,161.29 155.77,166.58 158.55,169.74C161.33,172.91 166.73,177.58 170.55,180.13C174.37,182.67 180.65,186.44 184.5,188.51C188.35,190.58 191.95,192.67 192.5,193.15C193.05,193.64 194.06,194.03 194.75,194.02C195.44,194.01 198.36,195.07 201.25,196.38C204.14,197.69 208.3,199.34 210.5,200.05C212.7,200.76 218.55,202.9 223.5,204.81C228.45,206.71 235.42,209.78 239,211.64C242.57,213.49 247.62,216.92 250.2,219.25C252.79,221.59 255.83,225.3 256.95,227.5C258.23,229.99 259,233.38 258.98,236.5C258.97,239.66 258.08,243.34 256.58,246.5C255.27,249.25 251.79,253.78 248.85,256.56C245.91,259.35 240.57,263.22 237,265.17C233.42,267.12 227.57,269.86 224,271.24C220.42,272.63 214.35,274.71 210.5,275.87C206.65,277.02 201.47,278.4 199,278.93C196.52,279.45 191.12,280.39 187,281.02C182.87,281.64 174.55,282.81 168.5,283.61C162.45,284.42 152.6,284.95 135.71,284.5L132.6,278.5C130.89,275.2 126.83,266.87 123.58,260C120.33,253.12 114.82,241.54 111.33,234.25C107.85,226.96 105.11,220.57 105.25,220.05C105.39,219.52 108.87,221.11 113,223.58C117.12,226.05 120.95,228.07 121.5,228.06C122.05,228.06 124.97,229.35 128,230.92C131.02,232.49 137.1,235.12 141.5,236.76C145.9,238.41 153.77,240.92 159,242.34C164.22,243.77 172.55,245.6 177.5,246.42C182.45,247.23 188.97,248.21 192,248.58C195.69,249.04 197.75,248.89 198.25,248.13C198.69,247.46 198.29,246.83 197.25,246.57C196.29,246.34 193.47,245.86 191,245.5C188.52,245.15 182.22,243.73 177,242.37C171.77,241 163.9,238.53 159.5,236.89C155.1,235.25 148.57,232.53 145,230.85C141.42,229.17 134.06,225.03 128.64,221.65C123.21,218.27 116.01,212.77 112.64,209.44C109.26,206.11 104.92,201.57 103,199.36C101.07,197.15 96.98,191.56 93.89,186.92C90.81,182.29 87.43,176.93 86.39,175C85.35,173.07 84.16,171.39 83.75,171.25C83.34,171.11 83,170.1 83,169C83,167.9 82.55,166.78 82,166.5C81.45,166.22 81,166.9 81,168C81,169.1 81.63,171.46 82.39,173.25C83.16,175.04 85.49,180.32 87.56,185C89.64,189.68 92.16,194.74 93.17,196.25C94.18,197.76 95,199.22 95,199.5C95,199.78 94.55,200 94,200C93.45,200 91.31,197.49 89.25,194.41C87.19,191.34 84.72,187.63 83.77,186.16C82.83,184.7 80.41,180.35 78.4,176.5C76.4,172.65 73.25,165.22 71.4,160C69.56,154.78 66.91,143.97 65.52,136C64.04,127.51 63,117.66 63,112.25C63,106.38 63.86,98.88 65.36,91.75C66.66,85.56 68.99,77.58 70.55,74C72.11,70.42 74.76,65.48 76.44,63.01C78.12,60.54 81.77,56.26 84.54,53.51C87.36,50.71 92.54,47.07 96.29,45.25C102.59,42.2 103.66,42 113.75,42C123.47,42.01 125.03,42.27 130,44.75C133.02,46.26 137.41,49.41 139.75,51.75C142.09,54.09 145.06,58.36 146.36,61.25C147.65,64.14 149.29,68.97 149.99,72C150.73,75.16 151.03,79.84 150.69,83C150.37,86.03 149.07,91.17 147.8,94.43C146.54,97.69 143.89,102.19 141.92,104.43C139.95,106.67 135.71,109.85 132.49,111.5C127.6,114.01 125.49,114.5 119.57,114.48C113.76,114.46 111.7,113.99 108,111.82C105.52,110.37 102.34,107.68 100.92,105.84C99.5,104 97.8,100.92 97.15,99C96.5,97.08 95.98,93.47 95.99,91C96,88.1 96.98,84.57 98.75,81.09C100.38,77.9 102.93,74.74 105,73.37C106.92,72.1 109.85,70.77 111.5,70.41C113.15,70.06 116.07,70.03 118,70.35C119.92,70.67 123.3,72.33 125.5,74.04C127.7,75.75 129.79,78.13 130.15,79.33C130.76,81.35 130.81,81.36 130.92,79.5C130.98,78.4 130.59,76.15 130.06,74.5C129.52,72.85 127.38,70.16 125.29,68.51C122.16,66.05 120.37,65.46 115,65.14C109.93,64.84 107.62,65.2 104.5,66.77C102.3,67.88 99.23,70.07 97.69,71.64C96.14,73.21 93.89,76.53 92.69,79C91.05,82.39 90.51,85.34 90.51,91C90.5,97.04 90.99,99.44 93,103.36C94.37,106.04 97.41,109.98 99.75,112.11C102.09,114.25 105.91,116.97 108.25,118.17C111.45,119.8 114.35,120.34 120,120.37C126.14,120.41 128.68,119.9 134,117.55C138.29,115.65 142.16,112.94 145.37,109.59C148.04,106.79 151.12,102.47 152.21,100C153.3,97.53 154.82,93.47 155.59,91C156.35,88.53 156.98,83.24 156.99,79.25C157,73.63 156.32,70.15 153.96,63.75C152.28,59.21 149.7,53.92 148.22,52C146.74,50.08 144.39,47.48 143.01,46.22C141.63,44.97 138.81,43.06 136.75,41.97C134.69,40.89 132.82,39.66 132.61,39.25C132.4,38.84 134.31,38.82 136.86,39.2ZM264,101.13C273.47,101.06 281.62,101.58 287.5,102.63C292.45,103.52 298.07,104.82 303.5,106.77L304.19,118.64C304.57,125.23 305.84,134.28 307.04,139C308.23,143.68 309.57,149.07 310.01,151C310.45,152.93 312.23,158.55 313.97,163.5C315.71,168.45 317.93,174.07 318.91,176C319.88,177.93 322.09,182.43 323.82,186C325.54,189.57 326.96,193.06 326.98,193.75C326.99,194.68 326.3,194.61 324.25,193.47C322.74,192.63 319.02,190.15 316,187.95C312.98,185.75 304.87,181.21 298,177.86C291.12,174.51 283.7,170.95 281.5,169.95C279.3,168.96 273.23,166.62 268,164.75C262.77,162.89 256.48,160.66 254,159.81C251.52,158.96 247.25,157.44 244.5,156.44C241.75,155.44 236.35,153.1 232.5,151.25C228.65,149.39 223.92,146.93 222,145.78C220.07,144.63 217,142.29 215.16,140.59C213.33,138.89 211.19,136.26 210.41,134.75C209.64,133.24 209,129.53 209,126.5C209,121.33 209.28,120.69 213.75,115.86C216.83,112.53 220.79,109.65 225,107.67C228.57,105.99 235.55,103.86 240.5,102.94C246,101.91 255.14,101.21 264,101.13ZM785,122L813.01,122L812.5,268.5L785,269L785,122ZM834,122L861,122L861,269L834,269L834,122ZM442.5,126.15C449.65,126.13 458.65,126.7 462.5,127.42C466.35,128.14 471.75,129.72 474.5,130.94C477.25,132.16 479.8,133.68 480.17,134.33C480.53,134.97 480.24,137.3 479.51,139.5C478.78,141.7 477.28,145.97 476.18,149C475.02,152.15 473.49,154.61 472.58,154.75C471.71,154.89 470.44,154.59 469.75,154.08C469.06,153.57 466.25,152.34 463.5,151.34C459.48,149.88 455.46,149.52 427.46,149.5L423.23,153C420.32,155.41 418.67,157.75 417.93,160.5C417.35,162.7 417.17,165.85 417.54,167.5C417.91,169.15 419.62,171.99 421.35,173.8C423.08,175.62 426.75,178.18 429.5,179.5C432.25,180.82 437.2,182.87 440.5,184.05C443.8,185.24 448.3,186.87 450.5,187.68C452.7,188.49 457.2,190.52 460.5,192.2C463.8,193.88 468.27,196.66 470.43,198.38C472.59,200.1 475.61,202.85 477.13,204.5C478.66,206.15 481.31,210.2 483.02,213.5C486.01,219.27 486.12,219.91 485.81,230C485.55,238.7 485.08,241.36 483.05,245.5C481.71,248.25 478.33,252.89 475.55,255.82C472.77,258.75 468.14,262.46 465.25,264.07C462.36,265.68 456.51,267.97 452.25,269.15C446.92,270.63 440.6,271.43 432,271.72C421.36,272.08 417.78,271.77 408,269.65C401.67,268.28 393.91,266 390.75,264.58C387.59,263.16 384.82,261.66 384.59,261.25C384.36,260.84 385.66,256 387.48,250.5C389.94,243.04 391.25,240.42 392.64,240.18C393.66,240 396.75,240.85 399.5,242.06C402.25,243.28 408.1,245.15 412.5,246.22C417.54,247.45 424.2,248.2 430.5,248.24C437.89,248.29 441.67,247.84 445,246.52C447.48,245.53 450.74,243.44 452.25,241.86C453.76,240.29 455.45,237.88 456,236.5C456.55,235.13 457,232.54 457,230.75C457.01,228.96 456.17,225.93 455.14,224C454.11,222.07 450.85,218.81 447.89,216.74C444.92,214.66 440.7,212.48 438.5,211.88C436.3,211.29 432.7,209.94 430.5,208.88C428.3,207.83 426.05,206.97 425.5,206.96C424.95,206.95 420.9,205.32 416.5,203.32C412.1,201.33 407.24,198.75 405.7,197.6C404.16,196.44 401.07,193.93 398.85,192C396.62,190.07 393.38,186.03 391.65,183C388.62,177.71 388.5,177.07 388.5,166C388.5,154.89 388.61,154.31 391.69,149C393.44,145.97 396.36,142.14 398.19,140.48C400.01,138.82 402.85,136.52 404.5,135.38C406.15,134.24 409.75,132.28 412.5,131.02C415.25,129.75 420.2,128.15 423.5,127.46C426.8,126.76 435.35,126.18 442.5,126.15ZM898,128.03C901.78,128.02 904.52,128.63 906.75,130C908.54,131.1 910.67,133.35 911.5,135C912.33,136.65 913,139.91 912.99,142.25C912.99,144.59 912.2,147.71 911.24,149.19C910.28,150.66 908.6,152.56 907.5,153.41C906.11,154.47 903.07,154.95 889.5,155.06L886.25,151.03C883.66,147.82 883,146.08 883,142.5C883,140.03 883.45,137.1 884,136C884.55,134.9 885.79,133.2 886.75,132.21C887.71,131.23 889.4,129.89 890.5,129.24C891.6,128.59 894.98,128.05 898,128.03ZM553,167.12C554.37,167.05 559.33,167.47 564,168.05C568.67,168.63 575.1,170.09 578.28,171.3C581.46,172.51 584.05,173.84 584.03,174.25C584.02,174.66 583.17,178.04 582.15,181.75C581.13,185.46 579.78,189.51 579.15,190.75C578.52,191.99 577.89,193.01 577.75,193.02C577.61,193.04 575.7,192.28 573.5,191.34C570.53,190.08 566.53,189.63 558,189.6C547.08,189.56 546.2,189.71 540.5,192.64C537.15,194.36 532.85,197.65 530.75,200.11C528.36,202.91 526.59,206.31 525.86,209.5C525.18,212.49 524.96,217.92 525.32,223C525.8,229.83 526.41,232.24 528.46,235.25C529.86,237.31 532.46,240.33 534.25,241.95C536.04,243.58 540.54,246.05 544.25,247.45C548.87,249.2 552.97,250 557.25,249.99C560.69,249.99 566.87,249.06 571,247.93C575.12,246.8 578.82,246.24 579.2,246.69C579.59,247.13 580.66,251.1 581.58,255.5C582.51,259.9 582.98,264.29 582.63,265.25C582.28,266.21 580.54,267.4 578.75,267.89C576.96,268.37 572.8,269.38 569.5,270.14C566.03,270.93 558.24,271.47 551,271.43C542.9,271.38 536.56,270.81 533,269.8C529.98,268.94 525.92,267.51 524,266.62C522.08,265.74 518.92,264.09 517,262.97C515.08,261.85 511.31,258.59 508.63,255.72C505.96,252.85 502.15,247.12 496.56,235.5L496.5,205.5L500.09,198C502.52,192.93 505.6,188.6 509.59,184.63C512.84,181.4 518.2,177.4 521.5,175.75C524.8,174.1 530.2,171.92 533.5,170.91C536.8,169.89 541.98,168.65 545,168.15C548.02,167.65 551.62,167.18 553,167.12ZM658.5,167.5L658.5,192.5L650.5,193.11C646.1,193.45 640.92,194.38 639,195.19C637.08,195.99 633.8,198.42 631.72,200.58C629.25,203.14 627.42,206.33 626.47,209.75C625.34,213.77 625,221.34 625,269L615.75,269.28C610.66,269.44 604.36,269.44 597,269L596.75,220.25C596.53,177.94 596.7,171.33 598,170.23C599,169.39 602.917,168.973 609.75,168.98C616.91,168.99 620.2,169.38 620.67,170.25C621.04,170.94 621.6,174.87 622.5,186.5L624.5,183.67C625.6,182.11 627.85,179.24 629.5,177.29C631.15,175.34 634.3,172.79 636.5,171.62C638.7,170.45 642.08,168.96 644,168.3C645.92,167.65 649.98,167.2 658.5,167.5ZM717,167.07C720.02,167.03 725.2,167.47 728.5,168.06C731.8,168.64 736.98,170.02 740,171.11C743.02,172.2 747.52,174.49 750,176.2C752.48,177.9 756.09,180.92 758.02,182.9C759.96,184.88 762.96,188.97 764.68,192C766.4,195.03 768.52,200.31 769.4,203.75C770.28,207.19 771.01,213.71 771.01,218.25C771.02,222.79 770.25,229.88 769.31,234C768.36,238.12 766.55,242.96 765.29,244.75C764.03,246.54 763.01,248.56 763.03,249.25C763.04,249.94 760.01,253.45 756.28,257.06C752.55,260.67 747.48,264.61 745,265.81C742.52,267.01 736.9,268.89 732.5,269.99C727.7,271.18 721.1,271.98 716,271.99C710.75,272 705.01,271.3 701,270.17C697.42,269.16 692.28,267.25 689.56,265.92C686.84,264.59 681.96,261.02 678.71,258C675.46,254.97 671.51,250.25 669.93,247.5C668.36,244.75 666.15,239.24 665.03,235.25C663.72,230.55 663,225.01 663,219.5C663,214.66 663.68,208.74 664.57,205.75C665.44,202.86 667.35,197.89 668.82,194.69C670.3,191.5 673.31,187 675.51,184.69C677.72,182.39 681.77,178.95 684.51,177.05C687.26,175.15 691.75,172.74 694.5,171.69C697.25,170.65 702.2,169.2 705.5,168.48C708.8,167.75 713.97,167.12 717,167.07ZM712.44,187.88C710.21,188.22 706.84,189.56 704.94,190.85C703.05,192.15 700.09,195.07 698.37,197.35C696.07,200.41 694.81,203.72 693.56,210C692.47,215.47 692.11,220.28 692.53,223.5C692.89,226.25 693.75,230.53 694.44,233C695.13,235.47 696.86,239.3 698.28,241.5C699.69,243.7 702.76,246.85 705.1,248.5C708.31,250.77 710.71,251.59 714.93,251.85C717.99,252.05 722.41,251.71 724.75,251.1C727.47,250.4 730.54,248.47 733.28,245.75C735.99,243.05 738.27,239.49 739.51,236C740.96,231.9 741.46,227.82 741.48,220C741.49,212.65 740.99,208 739.79,204.5C738.85,201.75 736.26,197.36 734.04,194.75C731.62,191.91 728.69,189.63 726.75,189.08C724.96,188.58 721.92,187.96 720,187.71C718.07,187.46 714.67,187.54 712.44,187.88ZM904,169.77C907.58,170.03 910.84,170.42 911.25,170.62C911.66,170.83 912,192.37 912,218.5C912,244.62 911.77,266.68 911.5,267.5C911.09,268.73 908.61,269 884,269L884.5,170.5L891,169.9C894.58,169.57 900.42,169.51 904,169.77ZM951,169.18C953.47,169.06 956.25,169.54 957.17,170.23C958.09,170.93 959.67,172.88 960.67,174.57C961.68,176.26 964.3,180.26 966.5,183.46C968.7,186.67 971.17,190.29 972,191.52C972.83,192.75 974.4,195.17 975.5,196.89C976.6,198.61 978.06,200.02 978.75,200.01C979.44,200.01 981.46,197.46 983.25,194.35C985.04,191.25 986.95,187.96 987.5,187.06C988.05,186.16 990.04,182.96 991.93,179.96C993.81,176.96 996.29,173.48 997.43,172.22C999.41,170.05 1000.16,169.95 1014.25,169.97C1023.05,169.99 1028.9,170.38 1028.75,170.95C1028.61,171.47 1026.03,175.33 1023,179.53C1019.97,183.73 1015.02,190.39 1011.98,194.33C1008.95,198.27 1005.57,202.8 1004.48,204.39C1003.39,205.98 1001.6,208.5 1000.5,210C999.4,211.5 997.71,213.91 996.75,215.36C995.03,217.96 995.05,218.08 998.55,223.25C1000.5,226.14 1003.17,230.07 1004.49,232C1005.81,233.93 1007.93,236.84 1009.19,238.48C1010.46,240.12 1013.04,243.72 1014.92,246.48C1016.8,249.24 1020.98,255.1 1024.21,259.5C1027.44,263.9 1030.06,267.84 1030.04,268.25C1030.02,268.66 1022.94,268.89 998.61,268.5L993.56,261.28C990.77,257.31 985.8,250.22 982.5,245.52C976.75,237.32 976.43,237.04 974.71,238.73C973.72,239.71 972.63,241.4 972.28,242.5C971.93,243.6 969.24,247.99 966.32,252.25C963.39,256.51 961,260.23 961,260.5C961,260.77 959.65,262.8 955,269L940,269C931.75,269 925,268.66 925.01,268.25C925.01,267.84 925.8,266.32 926.76,264.87C927.71,263.43 931.2,258.58 934.5,254.09C937.8,249.6 941.75,244.26 943.29,242.22C944.82,240.17 947.28,236.7 948.76,234.5C950.25,232.3 953.38,228.14 955.73,225.25C958.08,222.36 959.99,219.44 959.97,218.75C959.96,218.06 958.57,215.7 956.9,213.5C955.23,211.3 951.53,206.31 948.68,202.42C945.83,198.52 939.67,190.06 935,183.6C930.33,177.15 926.61,171.56 926.74,171.18C926.87,170.81 931.37,170.25 936.74,169.94C942.11,169.64 948.52,169.29 951,169.18ZM311.16,192.99C311.9,192.99 313.63,193.74 315,194.66C316.38,195.59 320.41,198.85 323.97,201.92C327.53,204.99 331.81,209.03 333.47,210.89C335.14,212.75 338,216.35 339.83,218.89C341.67,221.43 344.54,226.2 346.22,229.5C347.9,232.8 350.11,238.99 351.14,243.25C352.16,247.51 353,254.26 353,258.25C353,262.31 352.18,268.36 351.14,272C350.12,275.57 347.72,280.98 345.8,284C343.87,287.02 340.1,291.46 337.4,293.85C334.71,296.24 329.35,300.03 325.5,302.27C321.65,304.51 315.8,307.22 312.5,308.31C309.2,309.39 306.05,310.62 305.5,311.02C304.95,311.43 302.93,312.07 301,312.45C299.07,312.82 296.15,313.61 294.5,314.21C292.85,314.81 290.15,315.88 288.5,316.59C286.85,317.3 282.8,318.77 279.5,319.85C276.2,320.93 269,323.49 263.5,325.53C258,327.57 251.48,329.91 249,330.71C246.53,331.52 243.6,332.58 242.5,333.06C241.4,333.54 235.32,335.78 229,338.03C222.68,340.29 214.8,343.17 211.5,344.44C208.2,345.71 201.68,348.17 197,349.91C192.32,351.66 186.25,354.02 183.5,355.17C180.75,356.31 176.7,357.79 174.5,358.45C172.3,359.11 169.15,360.19 167.5,360.85C165.85,361.5 163.6,362.44 162.5,362.94C161.4,363.43 156.45,365.17 151.5,366.8C146.55,368.43 138.23,370.53 133,371.46C127.78,372.39 121.7,373 115.5,372.5L120.5,370.72C123.25,369.74 127.3,367.74 129.5,366.27C131.7,364.79 135.69,361.32 138.36,358.55C141.04,355.77 143.92,352.15 144.76,350.5C145.6,348.85 147.14,345.02 148.18,342C149.59,337.9 150.07,333.7 150.06,325.5C150.05,318.81 149.44,312.15 148.49,308.5C147.64,305.2 146.72,301.71 146.47,300.75C146.04,299.16 147,299 156.75,299C162.66,299 176.05,298.32 186.5,297.5C196.95,296.67 212.03,294.81 220,293.37C227.98,291.92 239.9,289.17 246.5,287.26C253.1,285.36 259.4,283.55 260.5,283.24C261.6,282.94 263.4,282.08 264.5,281.34C265.6,280.59 267.18,280 268,280.02C268.82,280.04 273.1,278.18 277.5,275.89C281.9,273.6 289.1,269.37 293.5,266.5C297.9,263.62 304.12,258.4 307.32,254.88C310.66,251.22 314.82,245.1 317.1,240.5C320.93,232.77 321.06,232.17 321.03,222.5C321,213.45 320.71,211.88 317.93,206C316.23,202.43 313.72,198.04 312.33,196.25C310.67,194.11 310.27,193 311.16,192.99ZM49.94,284C50.46,284 53.28,284.64 56.19,285.41C59.11,286.19 64.65,287.75 68.5,288.87C72.35,290 80.45,291.87 86.5,293.03C92.55,294.2 102.68,295.55 109,296.05C115.33,296.55 123.99,296.96 136,297L137.97,301.25C139.06,303.59 140.63,309.32 141.47,314C142.31,318.68 142.99,324.75 142.98,327.5C142.98,330.25 142.3,335.31 141.49,338.75C140.67,342.19 138.72,346.91 137.15,349.25C135.59,351.59 132.33,355.21 129.9,357.29C127.48,359.38 123.7,361.96 121.5,363.03C119.3,364.1 115.7,364.98 113.5,364.98C111.3,364.98 108.38,364.39 107,363.66C105.63,362.92 102.91,361.46 100.97,360.41C99.03,359.36 93.92,355.57 89.6,352C85.28,348.43 78.96,341.9 75.54,337.5C72.13,333.1 68.02,327.32 66.42,324.65C64.81,321.99 62.44,317.94 61.15,315.65C59.86,313.37 57.25,307.9 55.34,303.5C53.43,299.1 51.22,293.14 50.43,290.25C49.64,287.36 49,284.77 49,284.5C49,284.23 49.42,284 49.94,284Z" style="fill:rgb(60,75,171);"/>
            </g>
        </g>
    </g>
</svg>
